<svg width="39" height="39" viewBox="0 0 39 39" fill="none" xmlns="http://www.w3.org/2000/svg">
<path d="M16.4743 3.48022H5.41231C4.53955 3.48022 3.83203 4.19386 3.83203 5.07417V16.2318C3.83203 17.1121 4.53955 17.8257 5.41231 17.8257H16.4743C17.347 17.8257 18.0545 17.1121 18.0545 16.2318V5.07417C18.0545 4.19386 17.347 3.48022 16.4743 3.48022Z" fill="#BFBFBF"/>
<path d="M16.4743 21.0134H5.41231C4.53955 21.0134 3.83203 21.7271 3.83203 22.6074V33.765C3.83203 34.6453 4.53955 35.3589 5.41231 35.3589H16.4743C17.347 35.3589 18.0545 34.6453 18.0545 33.765V22.6074C18.0545 21.7271 17.347 21.0134 16.4743 21.0134Z" fill="#FD813D"/>
<path d="M33.8581 3.48022H22.7961C21.9233 3.48022 21.2158 4.19386 21.2158 5.07417V16.2318C21.2158 17.1121 21.9233 17.8257 22.7961 17.8257H33.8581C34.7308 17.8257 35.4383 17.1121 35.4383 16.2318V5.07417C35.4383 4.19386 34.7308 3.48022 33.8581 3.48022Z" fill="#FD813D"/>
<path opacity="0.5" d="M33.8581 21.0134H22.7961C21.9233 21.0134 21.2158 21.7271 21.2158 22.6074V33.765C21.2158 34.6453 21.9233 35.3589 22.7961 35.3589H33.8581C34.7308 35.3589 35.4383 34.6453 35.4383 33.765V22.6074C35.4383 21.7271 34.7308 21.0134 33.8581 21.0134Z" fill="#817D7D"/>
</svg>
