<svg width="38" height="39" viewBox="0 0 38 39" fill="none" xmlns="http://www.w3.org/2000/svg">
<path d="M15.8337 3.66602H4.75033C3.87587 3.66602 3.16699 4.3749 3.16699 5.24935V16.3327C3.16699 17.2071 3.87587 17.916 4.75033 17.916H15.8337C16.7081 17.916 17.417 17.2071 17.417 16.3327V5.24935C17.417 4.3749 16.7081 3.66602 15.8337 3.66602Z" fill="#BFBFBF"/>
<path d="M15.8337 21.084H4.75033C3.87587 21.084 3.16699 21.7929 3.16699 22.6673V33.7507C3.16699 34.6251 3.87587 35.334 4.75033 35.334H15.8337C16.7081 35.334 17.417 34.6251 17.417 33.7507V22.6673C17.417 21.7929 16.7081 21.084 15.8337 21.084Z" fill="#117C90"/>
<path d="M33.2497 3.66602H22.1663C21.2919 3.66602 20.583 4.3749 20.583 5.24935V16.3327C20.583 17.2071 21.2919 17.916 22.1663 17.916H33.2497C34.1241 17.916 34.833 17.2071 34.833 16.3327V5.24935C34.833 4.3749 34.1241 3.66602 33.2497 3.66602Z" fill="#117C90"/>
<path opacity="0.5" d="M33.2497 21.084H22.1663C21.2919 21.084 20.583 21.7929 20.583 22.6673V33.7507C20.583 34.6251 21.2919 35.334 22.1663 35.334H33.2497C34.1241 35.334 34.833 34.6251 34.833 33.7507V22.6673C34.833 21.7929 34.1241 21.084 33.2497 21.084Z" fill="#817D7D"/>
</svg>
