<svg width="159" height="54" viewBox="0 0 159 54" fill="none" xmlns="http://www.w3.org/2000/svg">
<g filter="url(#filter0_i_2386_23937)">
<rect x="4" y="4" width="155" height="45.1513" rx="22.5757" fill="#FFD4AD"/>
</g>
<g filter="url(#filter1_d_2386_23937)">
<rect x="4" y="4" width="87.4581" height="45.0775" rx="22.5387" fill="#FD813D"/>
</g>
<path d="M124.229 36.2396C123.509 36.2396 122.762 36.153 121.989 35.9796C121.215 35.8196 120.495 35.533 119.829 35.1196C119.162 34.7196 118.615 34.173 118.189 33.4796C117.775 32.7996 117.569 31.9396 117.569 30.8996C117.569 29.9396 117.762 29.0396 118.149 28.1996C118.535 27.3596 119.082 26.5996 119.789 25.9196C120.509 25.2396 121.355 24.6663 122.329 24.1996C123.302 23.733 124.375 23.3996 125.549 23.1996L125.969 24.7596C124.995 24.933 124.095 25.193 123.269 25.5396C122.442 25.8863 121.722 26.313 121.109 26.8196C120.509 27.313 120.042 27.8796 119.709 28.5196C119.375 29.173 119.209 29.8863 119.209 30.6596C119.209 31.2863 119.315 31.8263 119.529 32.2796C119.742 32.733 120.022 33.1063 120.369 33.3996C120.729 33.7063 121.129 33.9463 121.569 34.1196C122.009 34.293 122.455 34.413 122.909 34.4796C123.375 34.5596 123.815 34.5996 124.229 34.5996C124.935 34.5996 125.655 34.533 126.389 34.3996C127.122 34.2796 127.789 34.093 128.389 33.8396L128.909 35.2396C128.589 35.3996 128.162 35.553 127.629 35.6996C127.109 35.8596 126.549 35.9863 125.949 36.0796C125.349 36.1863 124.775 36.2396 124.229 36.2396ZM120.929 25.6396C120.395 25.5063 119.915 25.2663 119.489 24.9196C119.062 24.573 118.722 24.1596 118.469 23.6796C118.229 23.1996 118.109 22.693 118.109 22.1596C118.109 21.3196 118.302 20.6196 118.689 20.0596C119.089 19.4996 119.595 19.0796 120.209 18.7996C120.835 18.5196 121.495 18.3796 122.189 18.3796C122.495 18.3796 122.822 18.4063 123.169 18.4596C123.515 18.513 123.849 18.593 124.169 18.6996L123.829 20.2396C123.562 20.173 123.282 20.1196 122.989 20.0796C122.695 20.0396 122.429 20.0196 122.189 20.0196C121.709 20.0196 121.282 20.1063 120.909 20.2796C120.535 20.453 120.242 20.693 120.029 20.9996C119.815 21.293 119.709 21.6396 119.709 22.0396C119.709 22.3996 119.809 22.7263 120.009 23.0196C120.222 23.2996 120.489 23.5463 120.809 23.7596C121.129 23.9596 121.455 24.113 121.789 24.2196C122.122 24.313 122.415 24.353 122.669 24.3396L120.929 25.6396Z" fill="white"/>
<path d="M51.6657 31.0171V32.5503H44.1364V31.0171H51.6657ZM44.5172 18.3315V32.5503H42.6325V18.3315H44.5172ZM50.6696 24.4448V25.978H44.1364V24.4448H50.6696ZM51.568 18.3315V19.8745H44.1364V18.3315H51.568Z" fill="white"/>
<defs>
<filter id="filter0_i_2386_23937" x="4" y="4" width="155" height="47.1514" filterUnits="userSpaceOnUse" color-interpolation-filters="sRGB">
<feFlood flood-opacity="0" result="BackgroundImageFix"/>
<feBlend mode="normal" in="SourceGraphic" in2="BackgroundImageFix" result="shape"/>
<feColorMatrix in="SourceAlpha" type="matrix" values="0 0 0 0 0 0 0 0 0 0 0 0 0 0 0 0 0 0 127 0" result="hardAlpha"/>
<feOffset dy="2"/>
<feGaussianBlur stdDeviation="1"/>
<feComposite in2="hardAlpha" operator="arithmetic" k2="-1" k3="1"/>
<feColorMatrix type="matrix" values="0 0 0 0 0 0 0 0 0 0 0 0 0 0 0 0 0 0 0.25 0"/>
<feBlend mode="normal" in2="shape" result="effect1_innerShadow_2386_23937"/>
</filter>
<filter id="filter1_d_2386_23937" x="0" y="0" width="95.458" height="53.0775" filterUnits="userSpaceOnUse" color-interpolation-filters="sRGB">
<feFlood flood-opacity="0" result="BackgroundImageFix"/>
<feColorMatrix in="SourceAlpha" type="matrix" values="0 0 0 0 0 0 0 0 0 0 0 0 0 0 0 0 0 0 127 0" result="hardAlpha"/>
<feOffset/>
<feGaussianBlur stdDeviation="2"/>
<feComposite in2="hardAlpha" operator="out"/>
<feColorMatrix type="matrix" values="0 0 0 0 0 0 0 0 0 0 0 0 0 0 0 0 0 0 0.2 0"/>
<feBlend mode="normal" in2="BackgroundImageFix" result="effect1_dropShadow_2386_23937"/>
<feBlend mode="normal" in="SourceGraphic" in2="effect1_dropShadow_2386_23937" result="shape"/>
</filter>
</defs>
</svg>
