<svg width="160" height="54" viewBox="0 0 160 54" fill="none" xmlns="http://www.w3.org/2000/svg">
<g filter="url(#filter0_i_2386_23937)">
<rect y="4" width="155" height="45.1513" rx="22.5757" fill="#FFD4AD"/>
</g>
<g filter="url(#filter1_d_2386_23937)">
<rect x="68" y="4" width="87.4581" height="45.0775" rx="22.5387" fill="#FD813D"/>
</g>
<path d="M120.229 36.2396C119.509 36.2396 118.762 36.153 117.989 35.9796C117.215 35.8196 116.495 35.533 115.829 35.1196C115.162 34.7196 114.615 34.173 114.189 33.4796C113.775 32.7996 113.569 31.9396 113.569 30.8996C113.569 29.9396 113.762 29.0396 114.149 28.1996C114.535 27.3596 115.082 26.5996 115.789 25.9196C116.509 25.2396 117.355 24.6663 118.329 24.1996C119.302 23.733 120.375 23.3996 121.549 23.1996L121.969 24.7596C120.995 24.933 120.095 25.193 119.269 25.5396C118.442 25.8863 117.722 26.313 117.109 26.8196C116.509 27.313 116.042 27.8796 115.709 28.5196C115.375 29.173 115.209 29.8863 115.209 30.6596C115.209 31.2863 115.315 31.8263 115.529 32.2796C115.742 32.733 116.022 33.1063 116.369 33.3996C116.729 33.7063 117.129 33.9463 117.569 34.1196C118.009 34.293 118.455 34.413 118.909 34.4796C119.375 34.5596 119.815 34.5996 120.229 34.5996C120.935 34.5996 121.655 34.533 122.389 34.3996C123.122 34.2796 123.789 34.093 124.389 33.8396L124.909 35.2396C124.589 35.3996 124.162 35.553 123.629 35.6996C123.109 35.8596 122.549 35.9863 121.949 36.0796C121.349 36.1863 120.775 36.2396 120.229 36.2396ZM116.929 25.6396C116.395 25.5063 115.915 25.2663 115.489 24.9196C115.062 24.573 114.722 24.1596 114.469 23.6796C114.229 23.1996 114.109 22.693 114.109 22.1596C114.109 21.3196 114.302 20.6196 114.689 20.0596C115.089 19.4996 115.595 19.0796 116.209 18.7996C116.835 18.5196 117.495 18.3796 118.189 18.3796C118.495 18.3796 118.822 18.4063 119.169 18.4596C119.515 18.513 119.849 18.593 120.169 18.6996L119.829 20.2396C119.562 20.173 119.282 20.1196 118.989 20.0796C118.695 20.0396 118.429 20.0196 118.189 20.0196C117.709 20.0196 117.282 20.1063 116.909 20.2796C116.535 20.453 116.242 20.693 116.029 20.9996C115.815 21.293 115.709 21.6396 115.709 22.0396C115.709 22.3996 115.809 22.7263 116.009 23.0196C116.222 23.2996 116.489 23.5463 116.809 23.7596C117.129 23.9596 117.455 24.113 117.789 24.2196C118.122 24.313 118.415 24.353 118.669 24.3396L116.929 25.6396Z" fill="white"/>
<path d="M47.6657 31.0171V32.5503H40.1364V31.0171H47.6657ZM40.5172 18.3315V32.5503H38.6325V18.3315H40.5172ZM46.6696 24.4448V25.978H40.1364V24.4448H46.6696ZM47.568 18.3315V19.8745H40.1364V18.3315H47.568Z" fill="white"/>
<defs>
<filter id="filter0_i_2386_23937" x="0" y="4" width="155" height="47.1514" filterUnits="userSpaceOnUse" color-interpolation-filters="sRGB">
<feFlood flood-opacity="0" result="BackgroundImageFix"/>
<feBlend mode="normal" in="SourceGraphic" in2="BackgroundImageFix" result="shape"/>
<feColorMatrix in="SourceAlpha" type="matrix" values="0 0 0 0 0 0 0 0 0 0 0 0 0 0 0 0 0 0 127 0" result="hardAlpha"/>
<feOffset dy="2"/>
<feGaussianBlur stdDeviation="1"/>
<feComposite in2="hardAlpha" operator="arithmetic" k2="-1" k3="1"/>
<feColorMatrix type="matrix" values="0 0 0 0 0 0 0 0 0 0 0 0 0 0 0 0 0 0 0.25 0"/>
<feBlend mode="normal" in2="shape" result="effect1_innerShadow_2386_23937"/>
</filter>
<filter id="filter1_d_2386_23937" x="64" y="0" width="95.458" height="53.0775" filterUnits="userSpaceOnUse" color-interpolation-filters="sRGB">
<feFlood flood-opacity="0" result="BackgroundImageFix"/>
<feColorMatrix in="SourceAlpha" type="matrix" values="0 0 0 0 0 0 0 0 0 0 0 0 0 0 0 0 0 0 127 0" result="hardAlpha"/>
<feOffset/>
<feGaussianBlur stdDeviation="2"/>
<feComposite in2="hardAlpha" operator="out"/>
<feColorMatrix type="matrix" values="0 0 0 0 0 0 0 0 0 0 0 0 0 0 0 0 0 0 0.2 0"/>
<feBlend mode="normal" in2="BackgroundImageFix" result="effect1_dropShadow_2386_23937"/>
<feBlend mode="normal" in="SourceGraphic" in2="effect1_dropShadow_2386_23937" result="shape"/>
</filter>
</defs>
</svg>
