<svg width="26" height="30" viewBox="0 0 26 30" fill="none" xmlns="http://www.w3.org/2000/svg">
<path d="M25.2847 8.32666L22.9437 11.0278C22.705 11.3032 22.3191 11.3032 22.0804 11.0278L16.4437 4.52393C16.205 4.24854 16.205 3.80322 16.4437 3.52783L18.7847 0.82666C19.7343 -0.269043 21.2781 -0.269043 22.2328 0.82666L25.2847 4.34815C26.2394 5.44385 26.2394 7.2251 25.2847 8.32666ZM14.4328 5.84815L1.09762 21.2349L0.0210624 28.354C-0.126203 29.3149 0.599969 30.147 1.43278 29.9829L7.6027 28.7349L20.9379 13.3481C21.1765 13.0728 21.1765 12.6274 20.9379 12.3521L15.3011 5.84815C15.0574 5.57275 14.6715 5.57275 14.4328 5.84815ZM6.3027 19.9165C6.02341 19.5942 6.02341 19.0786 6.3027 18.7563L14.123 9.73291C14.4023 9.41065 14.8492 9.41065 15.1285 9.73291C15.4078 10.0552 15.4078 10.5708 15.1285 10.8931L7.30817 19.9165C7.02887 20.2388 6.582 20.2388 6.3027 19.9165ZM4.4695 24.8442H6.907V26.9712L3.63161 27.6333L2.05231 25.811L2.62614 22.0317H4.4695V24.8442Z" fill="#F5F5F5"/>
</svg>
